<?xml version="1.0" encoding="UTF-8" standalone="no"?>
<!DOCTYPE svg PUBLIC "-//W3C//DTD SVG 1.1//EN" "http://www.w3.org/Graphics/SVG/1.1/DTD/svg11.dtd">
<svg xmlns="http://www.w3.org/2000/svg" xmlns:xlink="http://www.w3.org/1999/xlink" version="1.1" width="200pt" height="200pt" viewBox="0 0 200 200">
<g enable-background="new">
<g id="Layer-1" data-name="Layer">
<path transform="matrix(1,0,0,-1,10.5298,39.7007)" d="M 0 0 L 25.601 25.601 L 178.941 25.601 L 178.941 -120.545 L 153.287 -146.2 L .105 -146.2 Z " fill="#00467f"/>
<path transform="matrix(1,0,0,-1,60.4619,114.7041)" d="M 0 0 L -3.703 0 L -3.703 2.592 L -.265 2.592 L -.265 4.178 L -3.703 4.178 L -3.703 6.664 L -.106 6.664 L -.106 8.198 L -5.29 8.198 L -5.29 -1.534 L 0 -1.534 Z " fill="#ffffff"/>
<path transform="matrix(1,0,0,-1,105.2627,108.04)" d="M 0 0 L 0 1.534 L -5.13 1.534 L -5.13 -8.198 L .106 -8.198 L .106 -6.664 L -3.597 -6.664 L -3.597 -4.072 L -.105 -4.072 L -.105 -2.486 L -3.597 -2.486 L -3.597 0 Z " fill="#ffffff"/>
<path transform="matrix(1,0,0,-1,46.5503,112.166)" d="M 0 0 L 4.443 0 L 4.443 -4.072 L 5.977 -4.072 L 5.977 5.66 L 4.443 5.66 L 4.443 1.587 L 0 1.587 L 0 5.66 L -1.534 5.66 L -1.534 -4.072 L 0 -4.072 Z " fill="#ffffff"/>
<clipPath id="cp0">
<path transform="matrix(1,0,0,-1,0,200)" d="M 0 200 L 200 200 L 200 0 L 0 0 Z "/>
</clipPath>
<g clip-path="url(#cp0)">
<path transform="matrix(1,0,0,-1,69.8237,116.3447)" d="M 0 0 C 1.27 0 2.274 .371 2.962 1.111 C 3.597 1.799 3.967 2.804 3.967 4.021 L 3.967 9.892 L 2.433 9.892 L 2.433 4.232 C 2.433 3.227 2.274 2.698 1.957 2.275 C 1.746 2.011 1.164 1.587 .106 1.587 C -.582 1.587 -1.164 1.852 -1.586 2.328 C -1.957 2.751 -2.063 3.174 -2.063 4.126 L -2.063 9.839 L -3.597 9.839 L -3.597 3.809 C -3.597 2.592 -3.227 1.587 -2.433 .899 C -1.851 .317 -.952 0 0 0 " fill="#ffffff"/>
<path transform="matrix(1,0,0,-1,84.1582,116.2383)" d="M 0 0 L 0 9.732 L -1.481 9.732 L -1.481 2.75 C -1.64 2.909 -6.982 9.732 -6.982 9.732 L -8.146 9.732 L -8.146 0 L -6.665 0 L -6.665 6.929 C -6.506 6.771 -1.27 0 -1.27 0 Z " fill="#ffffff"/>
<path transform="matrix(1,0,0,-1,98.1753,106.5059)" d="M 0 0 L -1.587 0 C -1.587 0 -3.914 -6.136 -4.02 -6.295 C -4.073 -6.136 -6.453 0 -6.453 0 L -8.04 0 L -4.231 -9.839 L -3.756 -9.839 Z " fill="#ffffff"/>
<path transform="matrix(1,0,0,-1,111.8223,109.3096)" d="M 0 0 C 0 -.423 -.106 -.74 -.317 -.952 C -.582 -1.217 -.952 -1.322 -1.481 -1.322 L -2.116 -1.322 L -2.116 1.322 L -1.481 1.322 C -.477 1.322 0 .899 0 0 C 0 .053 0 .053 0 0 M 1.48 -6.929 L 3.332 -6.929 L 3.067 -6.559 C 2.538 -5.766 2.327 -5.448 2.01 -4.866 C 1.692 -4.337 1.428 -3.755 1.11 -3.332 C .846 -2.909 .581 -2.645 .264 -2.38 C 1.11 -1.904 1.533 -1.11 1.533 -.053 C 1.533 .794 1.269 1.481 .74 2.01 C .211 2.486 -.529 2.751 -1.429 2.751 L -3.756 2.751 L -3.756 -6.981 L -2.222 -6.981 L -2.222 -2.909 L -1.904 -2.909 C -1.376 -2.909 -.899 -3.067 .211 -4.972 Z " fill="#ffffff"/>
<path transform="matrix(1,0,0,-1,119.0684,108.04)" d="M 0 0 C .635 0 1.27 -.317 1.852 -.952 L 2.063 -1.163 L 2.116 -1.217 L 2.116 .794 L 2.063 .847 C 1.428 1.322 .74 1.534 .053 1.534 C -.74 1.534 -1.428 1.27 -1.904 .794 C -2.38 .317 -2.645 -.37 -2.645 -1.163 C -2.645 -2.539 -1.692 -3.279 -.74 -3.914 L -.529 -4.072 L -.105 -4.39 C .158 -4.549 .317 -4.707 .476 -4.866 C .847 -5.236 1.005 -5.554 1.005 -5.924 C 1.005 -6.294 .687 -6.929 -.212 -6.929 C -.952 -6.929 -1.745 -6.453 -2.327 -5.659 L -2.539 -5.342 L -2.592 -5.236 L -2.539 -7.616 C -1.799 -8.251 -1.005 -8.516 -.053 -8.516 C .635 -8.516 1.322 -8.251 1.745 -7.723 C 2.222 -7.246 2.486 -6.559 2.486 -5.766 C 2.486 -4.179 1.481 -3.385 .582 -2.804 L -.105 -2.38 C -.37 -2.222 -.529 -2.115 -.687 -1.957 C -1.058 -1.64 -1.217 -1.375 -1.217 -1.005 C -1.217 -.423 -.687 0 0 0 " fill="#ffffff"/>
<path transform="matrix(1,0,0,-1,139.0098,116.2383)" d="M 0 0 L 1.533 0 L 1.533 5.077 L 4.812 9.732 L 2.962 9.732 C 2.962 9.732 .793 6.718 .74 6.611 C .687 6.718 -1.429 9.732 -1.429 9.732 L -3.333 9.732 C -3.333 9.732 -.054 5.131 -.054 5.077 C 0 5.077 0 0 0 0 " fill="#ffffff"/>
<path transform="matrix(1,0,0,-1,0,200)" d="M 86.75 93.494 L 88.284 93.494 L 88.284 83.762 L 86.75 83.762 Z " fill="#ffffff"/>
<path transform="matrix(1,0,0,-1,0,200)" d="M 124.252 93.494 L 125.785999 93.494 L 125.785999 83.762 L 124.252 83.762 Z " fill="#ffffff"/>
<path transform="matrix(1,0,0,-1,39.3042,116.2383)" d="M 0 0 L 1.534 0 L 1.534 8.198 L 4.443 8.198 L 4.443 9.732 L -2.962 9.732 L -2.962 8.198 L 0 8.198 Z " fill="#ffffff"/>
<path transform="matrix(1,0,0,-1,130.6523,116.2383)" d="M 0 0 L 1.587 0 L 1.587 8.198 L 4.496 8.198 L 4.496 9.732 L -2.909 9.732 L -2.909 8.198 L 0 8.198 Z " fill="#ffffff"/>
<path transform="matrix(1,0,0,-1,159.6377,111.7949)" d="M 0 0 L 3.28 0 L 3.28 1.533 L 0 1.533 L 0 3.755 L 3.28 3.755 L 3.28 5.289 L -1.533 5.289 L -1.533 -4.338 L 0 -4.338 Z " fill="#ffffff"/>
<path transform="matrix(1,0,0,-1,149.4297,108.9922)" d="M 0 0 C .582 .635 1.322 .952 2.222 .952 C 4.02 .952 5.342 -.476 5.342 -2.433 C 5.342 -3.385 5.024 -4.231 4.443 -4.866 C 3.861 -5.501 3.067 -5.818 2.222 -5.818 C 1.375 -5.818 .582 -5.501 0 -4.866 C -.582 -4.231 -.899 -3.385 -.899 -2.433 C -.899 -1.48 -.582 -.635 0 0 M 2.169 -7.405 C 3.544 -7.405 4.761 -6.876 5.606 -5.924 C 6.4 -5.024 6.823 -3.809 6.823 -2.485 C 6.823 -1.163 6.4 .053 5.554 1.005 C 4.707 1.957 3.491 2.486 2.169 2.486 C .846 2.486 -.37 1.957 -1.217 1.005 C -2.01 .106 -2.486 -1.11 -2.486 -2.433 C -2.486 -3.755 -2.063 -4.972 -1.217 -5.871 C -.37 -6.823 .846 -7.405 2.169 -7.405 " fill="#ffffff"/>
<path transform="matrix(1,0,0,-1,119.2803,132.31839)" d="M 0 0 C .053 .159 1.64 4.391 1.745 4.708 C 1.851 4.391 3.597 .159 3.649 0 Z M 2.697 9.31 L .846 9.31 L -5.555 -7.299 L -2.856 -7.299 C -2.856 -7.299 -1.059 -2.697 -1.059 -2.592 L 4.654 -2.592 C 4.707 -2.697 6.559 -7.299 6.559 -7.299 L 9.309 -7.299 Z " fill="#ffffff"/>
<path transform="matrix(1,0,0,-1,111.4512,137.02539)" d="M 0 0 L -6.506 0 L -6.506 13.911 L -9.15 13.911 L -9.15 -2.646 L 0 -2.646 Z " fill="#ffffff"/>
<path transform="matrix(1,0,0,-1,43.5884,127.6104)" d="M 0 0 C .106 -.317 1.798 -4.549 1.904 -4.708 L -1.746 -4.708 C -1.692 -4.549 -.105 -.317 0 0 M -2.75 -7.353 L 2.962 -7.353 C 3.015 -7.458 4.866 -12.061 4.866 -12.061 L 7.564 -12.061 L .899 4.549 L -.899 4.549 L -7.299 -12.061 L -4.549 -12.061 C -4.549 -12.061 -2.803 -7.405 -2.75 -7.353 " fill="#ffffff"/>
<path transform="matrix(1,0,0,-1,82.5713,138.3486)" d="M 0 0 L 0 3.227 L -.105 3.174 L -.476 2.909 C -2.063 1.799 -3.755 1.164 -5.342 1.164 C -6.982 1.164 -8.357 1.693 -9.362 2.751 C -10.367 3.809 -10.896 5.237 -10.896 6.93 C -10.896 8.569 -10.367 10.05 -9.362 11.108 C -8.357 12.166 -6.982 12.748 -5.501 12.748 C -3.914 12.748 -2.433 12.271 -.687 11.108 L -.37 10.896 L -.264 10.844 L -.37 14.07 L -.423 14.07 C -2.433 15.022 -3.967 15.393 -5.501 15.393 C -10.208 15.393 -13.646 11.743 -13.646 6.665 C -13.646 4.761 -12.959 2.751 -11.742 1.27 C -10.685 0 -8.78 -1.586 -5.606 -1.586 C -2.962 -1.533 -1.375 -.793 0 0 " fill="#ffffff"/>
<path transform="matrix(1,0,0,-1,91.6162,130.94339)" d="M 0 0 C .053 .106 6.506 7.829 6.506 7.829 L 3.174 7.829 C 3.174 7.829 -2.222 1.322 -2.433 1.005 L -2.433 7.829 L -5.078 7.829 L -5.078 -8.728 L -2.433 -8.728 L -2.433 -1.27 C -2.222 -1.533 4.496 -8.728 4.496 -8.728 L 8.093 -8.728 C 8.093 -8.728 .106 -.105 0 0 " fill="#ffffff"/>
<path transform="matrix(1,0,0,-1,155.5654,137.02539)" d="M 0 0 L -3.016 0 L -3.016 11.266 L -.106 11.266 C 1.692 11.266 3.12 10.685 4.126 9.573 C 5.024 8.568 5.501 7.193 5.501 5.606 C 5.501 3.543 4.337 0 0 0 M 6.294 11.213 C 4.866 12.959 2.75 13.911 .265 13.911 L -5.607 13.911 L -5.607 -2.646 L .265 -2.646 C 2.592 -2.646 4.602 -1.746 6.083 -.106 C 7.405 1.428 8.198 3.49 8.198 5.606 C 8.198 7.722 7.511 9.732 6.294 11.213 " fill="#ffffff"/>
<path transform="matrix(1,0,0,-1,59.2979,139.8818)" d="M 0 0 C 2.169 0 3.861 .635 5.025 1.851 C 6.136 3.015 6.665 4.707 6.665 6.771 L 6.665 16.768 L 4.02 16.768 L 4.02 7.193 C 4.02 5.501 3.756 4.549 3.174 3.914 C 2.75 3.49 1.852 2.75 0 2.75 C -1.164 2.75 -2.116 3.173 -2.909 4.02 C -3.491 4.707 -3.703 5.395 -3.703 7.088 L -3.703 16.82 L -6.347 16.82 L -6.347 6.611 C -6.347 4.549 -5.66 2.803 -4.39 1.64 C -3.173 .581 -1.64 0 0 0 " fill="#ffffff"/>
<path transform="matrix(1,0,0,-1,143.1348,134.96289)" d="M 0 0 C -.211 .317 -9.309 11.849 -9.309 11.849 L -11.372 11.849 L -11.372 -4.708 L -8.886 -4.708 L -8.886 7.035 C -8.674 6.718 .317 -4.708 .317 -4.708 L 2.486 -4.708 L 2.486 11.849 L 0 11.849 Z " fill="#ffffff"/>
<path transform="matrix(1,0,0,-1,41.6313,158.1309)" d="M 0 0 L -4.02 4.708 L -5.184 4.708 L -5.184 -2.063 L -3.914 -2.063 L -3.914 2.751 L .159 -2.063 L 1.27 -2.063 L 1.27 4.708 L 0 4.708 Z " fill="#ffffff"/>
<path transform="matrix(1,0,0,-1,50.9937,157.2314)" d="M 0 0 L 2.962 0 L 2.962 1.005 L 0 1.005 L 0 2.804 L 3.068 2.804 L 3.068 3.809 L -1.27 3.809 L -1.27 -2.962 L 3.121 -2.962 L 3.121 -1.904 L 0 -1.904 Z " fill="#ffffff"/>
<path transform="matrix(1,0,0,-1,67.6553,157.6016)" d="M 0 0 L -1.746 4.179 L -2.856 4.179 L -4.655 0 L -6.294 4.179 L -7.669 4.179 L -4.866 -2.645 L -4.443 -2.645 L -2.327 2.327 L -.211 -2.645 L .211 -2.645 L 3.015 4.179 L 1.692 4.179 Z " fill="#ffffff"/>
<path transform="matrix(1,0,0,-1,90.4526,153.4229)" d="M 0 0 L -5.977 0 L -5.977 -1.005 L -2.274 -1.005 L -6.188 -6.771 L 0 -6.771 L 0 -5.713 L -3.967 -5.713 Z " fill="#ffffff"/>
<path transform="matrix(1,0,0,-1,98.0693,157.2314)" d="M 0 0 L 2.962 0 L 2.962 1.005 L 0 1.005 L 0 2.804 L 3.068 2.804 L 3.068 3.809 L -1.27 3.809 L -1.27 -2.962 L 3.121 -2.962 L 3.121 -1.904 L 0 -1.904 Z " fill="#ffffff"/>
<path transform="matrix(1,0,0,-1,109.4941,157.5488)" d="M 0 0 L 1.059 2.645 L 2.222 0 Z M .371 4.126 L -2.433 -2.645 L -1.058 -2.645 L -.423 -1.005 L 2.592 -1.005 L 3.28 -2.645 L 4.655 -2.645 L 1.693 4.126 Z " fill="#ffffff"/>
<path transform="matrix(1,0,0,-1,121.6074,153.4229)" d="M 0 0 L -1.322 0 L -1.322 -6.771 L 3.279 -6.771 L 3.279 -5.713 L 0 -5.713 Z " fill="#ffffff"/>
<path transform="matrix(1,0,0,-1,132.8203,157.5488)" d="M 0 0 L 1.059 2.645 L 2.222 0 Z M .371 4.126 L -2.433 -2.645 L -1.058 -2.645 L -.423 -1.005 L 2.592 -1.005 L 3.28 -2.645 L 4.655 -2.645 L 1.693 4.126 Z " fill="#ffffff"/>
<path transform="matrix(1,0,0,-1,148.7949,158.1309)" d="M 0 0 L -4.021 4.708 L -5.184 4.708 L -5.184 -2.063 L -3.861 -2.063 L -3.861 2.751 L .158 -2.063 L 1.27 -2.063 L 1.27 4.708 L 0 4.708 Z " fill="#ffffff"/>
<path transform="matrix(1,0,0,-1,161.3311,158.501)" d="M 0 0 C -.424 -.423 -1.005 -.635 -1.746 -.635 L -3.121 -.635 L -3.121 4.073 L -1.799 4.073 C -1.059 4.073 -.477 3.861 0 3.438 C .423 3.015 .635 2.434 .635 1.692 C .635 1.005 .423 .423 0 0 M .264 4.655 C -.265 4.919 -.899 5.078 -1.587 5.078 L -4.391 5.078 L -4.391 -1.692 L -1.64 -1.692 C -.899 -1.692 -.265 -1.534 .264 -1.27 C .846 -1.005 1.27 -.582 1.587 -.105 C 1.904 .423 2.063 1.005 2.063 1.64 C 2.063 2.274 1.904 2.856 1.587 3.386 C 1.216 3.967 .793 4.338 .264 4.655 " fill="#ffffff"/>
<path transform="matrix(1,0,0,-1,0,200)" d="M 36.395 53.718 L 163.605 53.718 L 163.605 52.977998 L 36.395 52.977998 Z " fill="#ffffff"/>
<path transform="matrix(1,0,0,-1,74.373,39.753404)" d="M 0 0 L 0 -25.971 C 0 -32.054 4.549 -49.827 25.389 -58.554 L 25.707 -58.713 L 26.023 -58.554 C 46.864 -49.827 51.413 -32.107 51.413 -25.971 L 51.413 0 Z " fill="#ffffff"/>
<path transform="matrix(1,0,0,-1,79.9268,56.944307)" d="M 0 0 L 0 0 L -.159 .106 C -1.322 .793 -2.698 1.164 -4.073 1.164 L -4.337 1.164 L -4.39 1.164 L -4.39 -8.728 C -4.39 -8.939 -3.703 -30.149 20.206 -40.199 C 44.113 -30.149 44.801 -8.939 44.801 -8.728 L 44.801 1.164 L 44.483 1.164 C 43.108 1.164 41.733 .793 40.569 .106 C 38.084 -1.375 34.751 -1.375 32.213 .106 C 29.832 1.534 26.712 1.534 24.384 .106 L 24.331 .053 C 21.845 -1.375 18.566 -1.375 16.08 .106 L 16.027 .159 C 13.7 1.534 10.579 1.534 8.251 .159 L 8.146 .106 C 5.607 -1.375 2.433 -1.375 0 0 " fill="#00467f"/>
<path transform="matrix(1,0,0,-1,82.6772,44.3555)" d="M 0 0 C .899 1.058 2.063 1.164 2.645 1.217 C 6.453 1.322 8.41 -1.534 8.304 -3.808 C 8.199 -6.4 6.241 -7.035 5.977 -7.088 C 5.977 -7.088 5.924 -7.669 6.4 -8.41 C 6.453 -8.463 6.506 -8.516 6.453 -8.675 C 6.453 -8.728 6.347 -8.833 6.347 -8.886 C 6.347 -8.886 6.294 -8.992 6.347 -9.098 C 6.4 -9.256 6.347 -9.468 6.188 -9.68 C 6.083 -9.891 6.188 -10.42 6.241 -10.791 C 6.241 -10.843 6.188 -10.843 6.136 -10.791 C 5.871 -10.632 5.712 -10.156 5.66 -9.891 C 5.184 -9.997 4.655 -10.685 4.496 -11.108 C 4.496 -11.161 4.39 -11.213 4.39 -11.108 C 4.39 -11.055 4.284 -10.314 5.025 -9.732 C 4.655 -9.626 4.284 -9.785 4.02 -9.944 C 4.02 -9.944 3.914 -9.997 3.967 -9.891 C 3.967 -9.838 4.179 -9.362 5.184 -9.256 C 5.184 -9.204 5.395 -8.886 5.501 -8.622 C 5.448 -8.251 5.29 -7.775 5.025 -7.352 C 4.972 -7.352 4.284 -7.405 3.808 -7.775 C 3.755 -7.775 3.703 -7.881 3.703 -7.934 L 3.703 -8.146 C 3.703 -8.199 3.649 -8.357 3.385 -8.463 C 3.385 -8.463 2.539 -8.728 2.116 -8.939 C 2.116 -8.939 1.746 -9.098 1.481 -9.468 C 1.428 -9.521 1.216 -9.838 .899 -9.944 C .846 -9.944 .635 -10.05 .529 -10.156 L .211 -10.473 C .106 -10.526 -.106 -10.791 -.265 -11.108 C -.317 -11.161 -.317 -11.213 -.317 -11.108 L -.317 -10.791 C -.211 -10.367 -.053 -10.156 .159 -9.944 C .106 -9.944 .106 -9.944 .053 -9.891 C -.265 -9.944 -1.217 -9.838 -1.798 -10.103 C -1.852 -10.103 -1.904 -10.103 -1.852 -10.05 C -1.746 -9.891 -1.534 -9.362 -.265 -9.31 C -.265 -9.204 -.846 -8.886 -1.164 -8.886 C -1.27 -8.886 -1.217 -8.833 -1.164 -8.833 C -1.111 -8.78 -.529 -8.569 .159 -8.992 C .211 -8.992 .635 -8.833 .899 -8.78 C 1.216 -8.569 1.904 -7.881 2.168 -7.723 L 2.168 -7.405 L 2.116 -7.405 C 1.746 -6.876 1.692 -6.136 1.692 -5.712 C .952 -5.66 .159 -4.972 -.265 -4.443 C -.793 -4.39 -1.852 -3.967 -2.433 -2.803 C -4.39 -4.179 -5.66 -6.717 -5.712 -6.823 C -5.766 -6.876 -5.766 -6.876 -5.818 -6.823 C -6.03 -6.453 -6.083 -5.818 -6.03 -5.66 C -5.66 -4.655 -4.761 -3.227 -3.755 -1.957 C -4.126 .159 -2.169 .846 -1.428 .846 C -.635 .635 -.106 .159 0 0 " fill="#00467f"/>
<path transform="matrix(1,0,0,-1,80.0854,46.3125)" d="M 0 0 C -.159 0 -.317 .159 -.317 .317 C -.317 .476 -.159 .635 0 .635 C .159 .635 .317 .476 .317 .317 C .317 .159 .159 0 0 0 M 6.4 1.64 C 6.4 1.64 6.347 1.64 6.4 1.64 C 6.453 1.798 6.823 1.957 7.088 1.957 C 5.924 2.433 5.184 1.851 5.236 1.904 L 5.236 1.957 C 5.236 1.957 5.395 2.222 5.766 2.486 C 4.708 2.486 4.179 1.904 4.179 1.904 L 4.179 1.957 C 4.179 1.957 4.231 2.168 4.602 2.486 C 3.385 2.433 2.486 .952 2.486 .952 C 2.486 .952 2.274 2.01 1.216 2.01 C .476 2.116 -1.27 1.058 -.582 -.317 C -.899 -.899 -1.904 -1.746 -2.75 -3.544 L -2.75 -3.597 C -1.957 -2.486 -.846 -1.111 .265 -.423 C .37 -.529 1.005 -2.222 2.539 -2.274 C 2.698 -2.38 3.438 -3.65 4.813 -3.544 C 4.813 -3.703 4.813 -4.866 5.078 -5.29 L 5.131 -5.342 C 5.131 -5.29 5.131 -5.342 5.131 -5.342 C 5.236 -5.236 5.977 -4.655 6.612 -4.496 C 6.612 -4.496 6.876 -3.65 7.035 -3.438 C 8.304 -3.121 8.992 -2.116 9.045 -1.111 C 8.992 .317 7.775 1.798 6.4 1.64 " fill="#ffffff"/>
<path transform="matrix(1,0,0,-1,98.8101,44.3555)" d="M 0 0 C .899 1.058 2.063 1.164 2.644 1.217 C 6.453 1.322 8.41 -1.534 8.304 -3.808 C 8.199 -6.4 6.242 -7.035 5.977 -7.088 C 5.977 -7.088 5.924 -7.669 6.4 -8.41 C 6.453 -8.463 6.505 -8.516 6.453 -8.675 C 6.453 -8.728 6.347 -8.833 6.347 -8.886 C 6.347 -8.886 6.294 -8.992 6.347 -9.098 C 6.4 -9.256 6.347 -9.468 6.188 -9.68 C 6.083 -9.891 6.188 -10.42 6.242 -10.791 C 6.242 -10.843 6.188 -10.843 6.135 -10.791 C 5.871 -10.632 5.712 -10.156 5.66 -9.891 C 5.183 -9.997 4.655 -10.685 4.496 -11.108 C 4.496 -11.161 4.39 -11.213 4.337 -11.108 C 4.337 -11.055 4.231 -10.314 4.972 -9.732 C 4.602 -9.626 4.231 -9.785 3.967 -9.944 C 3.967 -9.944 3.861 -9.997 3.914 -9.891 C 3.914 -9.838 4.125 -9.362 5.13 -9.256 C 5.13 -9.204 5.342 -8.886 5.448 -8.622 C 5.448 -8.251 5.237 -7.775 4.972 -7.352 C 4.919 -7.352 4.231 -7.405 3.755 -7.775 C 3.703 -7.775 3.65 -7.881 3.65 -7.934 L 3.65 -8.146 C 3.65 -8.199 3.596 -8.357 3.333 -8.463 C 3.333 -8.463 2.486 -8.728 2.063 -8.939 C 2.063 -8.939 1.692 -9.098 1.428 -9.468 C 1.375 -9.521 1.164 -9.838 .846 -9.944 C .793 -9.944 .582 -10.05 .476 -10.156 C .37 -10.261 .264 -10.367 .159 -10.473 C .053 -10.526 -.159 -10.791 -.317 -11.108 C -.317 -11.161 -.371 -11.213 -.371 -11.108 L -.371 -10.791 C -.265 -10.367 -.053 -10.156 .105 -9.944 C .053 -9.944 .053 -9.944 0 -9.891 C -.317 -9.944 -1.27 -9.838 -1.852 -10.103 C -1.904 -10.103 -1.957 -10.103 -1.904 -10.05 C -1.798 -9.891 -1.587 -9.362 -.317 -9.31 C -.317 -9.204 -.899 -8.886 -1.217 -8.886 C -1.323 -8.886 -1.27 -8.833 -1.217 -8.833 C -1.164 -8.78 -.582 -8.569 .105 -8.992 C .159 -8.992 .582 -8.833 .846 -8.78 C 1.164 -8.569 1.851 -7.881 2.116 -7.723 L 2.116 -7.405 L 2.063 -7.405 C 1.692 -6.876 1.64 -6.136 1.64 -5.712 C .899 -5.66 .105 -4.972 -.317 -4.443 C -.847 -4.39 -1.904 -3.967 -2.486 -2.803 C -4.443 -4.179 -5.713 -6.717 -5.766 -6.823 C -5.818 -6.876 -5.818 -6.876 -5.872 -6.823 C -6.083 -6.453 -6.136 -5.818 -6.083 -5.66 C -5.713 -4.655 -4.813 -3.227 -3.809 -1.957 C -4.179 .159 -2.222 .846 -1.481 .846 C -.688 .635 -.106 .159 0 0 " fill="#00467f"/>
<path transform="matrix(1,0,0,-1,96.2183,46.3125)" d="M 0 0 C -.159 0 -.317 .159 -.317 .317 C -.317 .476 -.159 .635 0 .635 C .159 .635 .317 .476 .317 .317 C .317 .159 .159 0 0 0 M 6.4 1.64 C 6.4 1.64 6.347 1.64 6.4 1.64 C 6.453 1.798 6.823 1.957 7.087 1.957 C 5.924 2.433 5.183 1.851 5.237 1.904 L 5.237 1.957 C 5.237 1.957 5.395 2.222 5.765 2.486 C 4.708 2.486 4.178 1.904 4.178 1.904 L 4.178 1.957 C 4.178 1.957 4.231 2.168 4.602 2.486 C 3.385 2.433 2.486 .952 2.486 .952 C 2.486 .952 2.274 2.01 1.216 2.01 C .476 2.116 -1.217 1.058 -.582 -.317 C -.899 -.899 -1.904 -1.746 -2.75 -3.544 L -2.75 -3.597 C -2.01 -2.486 -.899 -1.111 .264 -.423 C .37 -.529 1.058 -2.222 2.539 -2.274 C 2.697 -2.38 3.438 -3.65 4.76 -3.544 C 4.76 -3.703 4.76 -4.866 5.025 -5.29 L 5.078 -5.342 C 5.078 -5.29 5.078 -5.342 5.078 -5.342 C 5.183 -5.236 5.924 -4.655 6.559 -4.496 C 6.559 -4.496 6.823 -3.65 6.982 -3.438 C 8.304 -3.121 8.939 -2.116 8.992 -1.111 C 8.992 .317 7.775 1.798 6.4 1.64 " fill="#ffffff"/>
<path transform="matrix(1,0,0,-1,114.7842,44.3555)" d="M 0 0 C .898 1.058 2.063 1.164 2.645 1.217 C 6.453 1.322 8.41 -1.534 8.304 -3.808 C 8.198 -6.4 6.241 -7.035 5.977 -7.088 C 5.977 -7.088 5.924 -7.669 6.4 -8.41 C 6.453 -8.463 6.506 -8.516 6.453 -8.675 C 6.453 -8.728 6.347 -8.833 6.347 -8.886 C 6.347 -8.886 6.294 -8.992 6.347 -9.098 C 6.4 -9.256 6.347 -9.468 6.188 -9.68 C 6.083 -9.891 6.188 -10.42 6.241 -10.791 C 6.241 -10.843 6.188 -10.843 6.136 -10.791 C 5.871 -10.632 5.712 -10.156 5.659 -9.891 C 5.184 -9.997 4.654 -10.685 4.496 -11.108 C 4.496 -11.161 4.39 -11.213 4.39 -11.108 C 4.39 -11.055 4.284 -10.314 5.024 -9.732 C 4.654 -9.626 4.284 -9.785 3.967 -9.944 C 3.967 -9.944 3.861 -9.997 3.914 -9.891 C 3.914 -9.838 4.125 -9.362 5.131 -9.256 C 5.131 -9.204 5.342 -8.886 5.448 -8.622 C 5.448 -8.251 5.236 -7.775 4.972 -7.352 C 4.919 -7.352 4.231 -7.405 3.755 -7.775 C 3.702 -7.775 3.649 -7.881 3.649 -7.934 L 3.649 -8.146 C 3.649 -8.199 3.597 -8.357 3.385 -8.463 C 3.385 -8.463 2.539 -8.728 2.115 -8.939 C 2.115 -8.939 1.745 -9.098 1.48 -9.468 C 1.428 -9.521 1.217 -9.838 .899 -9.944 C .846 -9.944 .635 -10.05 .528 -10.156 C .423 -10.261 .317 -10.367 .211 -10.473 C .105 -10.526 -.106 -10.791 -.265 -11.108 C -.265 -11.161 -.317 -11.213 -.317 -11.108 L -.317 -10.791 C -.212 -10.367 -.053 -10.156 .158 -9.944 C .105 -9.944 .105 -9.944 .053 -9.891 C -.265 -9.944 -1.217 -9.838 -1.799 -10.103 C -1.852 -10.103 -1.904 -10.103 -1.852 -10.05 C -1.746 -9.891 -1.534 -9.362 -.265 -9.31 C -.265 -9.204 -.847 -8.886 -1.164 -8.886 C -1.27 -8.886 -1.217 -8.833 -1.164 -8.833 C -1.111 -8.78 -.529 -8.569 .158 -8.992 C .211 -8.992 .635 -8.833 .899 -8.78 C 1.216 -8.569 1.904 -7.881 2.168 -7.723 L 2.168 -7.405 L 2.115 -7.405 C 1.745 -6.876 1.692 -6.136 1.692 -5.712 C .952 -5.66 .158 -4.972 -.265 -4.443 C -.794 -4.39 -1.852 -3.967 -2.434 -2.803 C -4.391 -4.179 -5.66 -6.717 -5.713 -6.823 C -5.766 -6.876 -5.766 -6.876 -5.818 -6.823 C -6.03 -6.453 -6.083 -5.818 -5.978 -5.66 C -5.607 -4.655 -4.708 -3.227 -3.703 -1.957 C -4.073 .159 -2.116 .846 -1.376 .846 C -.635 .635 -.106 .159 0 0 " fill="#00467f"/>
<path transform="matrix(1,0,0,-1,112.1924,46.3125)" d="M 0 0 C -.159 0 -.317 .159 -.317 .317 C -.317 .476 -.159 .635 0 .635 C .158 .635 .317 .476 .317 .317 C .317 .159 .211 0 0 0 M 6.399 1.64 L 6.399 1.64 C 6.453 1.798 6.823 1.957 7.088 1.957 C 5.924 2.433 5.184 1.851 5.236 1.904 L 5.236 1.957 C 5.236 1.957 5.395 2.222 5.766 2.486 C 4.707 2.486 4.179 1.904 4.179 1.904 L 4.179 1.957 C 4.179 1.957 4.231 2.168 4.602 2.486 C 3.385 2.433 2.485 .952 2.485 .952 C 2.485 .952 2.274 2.01 1.216 2.01 C .476 2.116 -1.217 1.058 -.582 -.317 C -.899 -.899 -1.904 -1.746 -2.751 -3.544 L -2.751 -3.597 C -1.957 -2.486 -.899 -1.111 .265 -.423 C .37 -.529 1.005 -2.222 2.539 -2.274 C 2.697 -2.38 3.438 -3.65 4.813 -3.544 C 4.813 -3.703 4.813 -4.866 5.077 -5.29 L 5.131 -5.342 C 5.131 -5.29 5.131 -5.342 5.131 -5.342 C 5.236 -5.236 5.977 -4.655 6.611 -4.496 C 6.611 -4.496 6.876 -3.65 7.034 -3.438 C 8.304 -3.121 8.992 -2.116 9.045 -1.111 C 9.045 .317 7.775 1.798 6.399 1.64 " fill="#ffffff"/>
<path transform="matrix(1,0,0,-1,102.0889,81.54)" d="M 0 0 L -.37 -.264 L 0 -.476 C .265 -.635 .424 -.846 .424 -1.164 C .424 -1.587 .054 -1.957 -.37 -1.957 L -3.702 -1.957 C -4.125 -1.957 -4.496 -1.587 -4.496 -1.164 C -4.496 -.899 -4.337 -.635 -4.072 -.476 L -3.702 -.264 L -4.072 0 C -4.866 .529 -5.818 .793 -6.717 .793 C -7.616 .793 -8.568 .529 -9.362 0 C -10.261 -.582 -11.107 -.793 -12.536 -.793 C -14.334 -.793 -15.815 -.264 -17.137 .899 L -17.19 .952 L -18.037 .952 L -18.142 .846 C -18.248 .687 -18.459 .635 -18.618 .635 C -18.936 .635 -19.253 .899 -19.253 1.217 C -19.253 1.534 -18.988 1.798 -18.618 1.798 C -18.407 1.798 -18.248 1.693 -18.142 1.587 L -18.037 1.481 L -17.031 1.481 L -17.031 2.698 L -18.037 2.698 L -18.142 2.592 C -18.248 2.433 -18.459 2.38 -18.618 2.38 C -18.936 2.38 -19.253 2.645 -19.253 2.962 C -19.253 3.279 -18.988 3.544 -18.618 3.544 C -18.407 3.544 -18.248 3.438 -18.142 3.333 L -18.037 3.227 L -17.031 3.227 L -17.031 4.443 L -18.037 4.443 L -18.142 4.337 C -18.248 4.179 -18.459 4.126 -18.618 4.126 C -18.936 4.126 -19.253 4.39 -19.253 4.708 C -19.253 5.025 -18.988 5.29 -18.618 5.29 C -18.407 5.29 -18.248 5.184 -18.142 5.078 L -18.037 4.972 L -17.031 4.972 L -17.031 6.188 L -18.037 6.188 L -18.142 6.083 C -18.248 5.924 -18.459 5.871 -18.618 5.871 C -18.936 5.871 -19.253 6.136 -19.253 6.453 C -19.253 6.771 -18.988 7.035 -18.618 7.035 C -18.407 7.035 -18.248 6.929 -18.142 6.823 L -18.037 6.718 L -17.031 6.718 L -17.031 7.934 L -18.037 7.934 L -18.142 7.829 C -18.248 7.67 -18.459 7.617 -18.618 7.617 C -18.936 7.617 -19.253 7.881 -19.253 8.199 C -19.253 8.516 -18.988 8.78 -18.618 8.78 C -18.407 8.78 -18.248 8.675 -18.142 8.569 L -18.037 8.463 L -17.031 8.463 L -17.031 9.68 L -18.037 9.68 L -18.142 9.574 C -18.248 9.415 -18.459 9.362 -18.618 9.362 C -18.936 9.362 -19.253 9.627 -19.253 9.944 C -19.253 10.262 -18.988 10.526 -18.618 10.526 C -18.407 10.526 -18.248 10.42 -18.142 10.314 L -18.037 10.208 L -17.031 10.208 L -17.031 11.425 L -18.037 11.425 L -18.142 11.319 C -18.248 11.161 -18.459 11.108 -18.618 11.108 C -18.936 11.108 -19.253 11.372 -19.253 11.689 C -19.253 12.007 -18.988 12.271 -18.618 12.271 C -18.407 12.271 -18.248 12.166 -18.142 12.06 L -18.089 11.954 L -17.296 11.954 L -16.45 12.377 L -16.45 1.322 L -16.344 1.111 C -14.069 -.317 -11.742 -.476 -9.679 .687 C -7.51 1.904 -4.443 1.957 -2.644 -.635 L -3.332 -.635 C -3.491 -.635 -3.596 -.74 -3.596 -.899 C -3.596 -1.058 -3.491 -1.164 -3.332 -1.164 L -.634 -1.164 C -.476 -1.164 -.37 -1.058 -.37 -.899 C -.37 -.74 -.476 -.635 -.634 -.635 L -1.48 -.635 C .371 2.01 3.438 1.798 5.555 .687 C 7.459 -.265 9.68 -.159 12.166 1.111 L 12.325 1.322 L 12.325 12.377 L 13.171 11.954 L 13.965 11.954 L 14.018 12.06 C 14.123 12.219 14.335 12.271 14.493 12.271 C 14.811 12.271 15.128 12.007 15.128 11.689 C 15.128 11.372 14.863 11.108 14.493 11.108 C 14.282 11.108 14.123 11.213 14.018 11.319 L 13.911 11.425 L 12.906 11.425 L 12.906 10.208 L 13.911 10.208 L 14.018 10.314 C 14.123 10.473 14.335 10.526 14.493 10.526 C 14.811 10.526 15.128 10.262 15.128 9.944 C 15.128 9.627 14.863 9.362 14.493 9.362 C 14.282 9.362 14.123 9.468 14.018 9.574 L 13.911 9.68 L 12.906 9.68 L 12.906 8.463 L 13.911 8.463 L 14.018 8.569 C 14.123 8.728 14.335 8.78 14.493 8.78 C 14.811 8.78 15.128 8.516 15.128 8.199 C 15.128 7.881 14.863 7.617 14.493 7.617 C 14.282 7.617 14.123 7.723 14.018 7.829 L 13.911 7.934 L 12.906 7.934 L 12.906 6.718 L 13.911 6.718 L 14.018 6.823 C 14.123 6.982 14.335 7.035 14.493 7.035 C 14.811 7.035 15.128 6.771 15.128 6.453 C 15.128 6.136 14.863 5.871 14.493 5.871 C 14.282 5.871 14.123 5.977 14.018 6.083 L 13.911 6.188 L 12.906 6.188 L 12.906 4.972 L 13.911 4.972 L 14.018 5.078 C 14.123 5.237 14.335 5.29 14.493 5.29 C 14.811 5.29 15.128 5.025 15.128 4.708 C 15.128 4.39 14.863 4.126 14.493 4.126 C 14.282 4.126 14.123 4.231 14.018 4.337 L 13.911 4.443 L 12.906 4.443 L 12.906 3.227 L 13.911 3.227 L 14.018 3.333 C 14.123 3.491 14.335 3.544 14.493 3.544 C 14.811 3.544 15.128 3.279 15.128 2.962 C 15.128 2.645 14.863 2.38 14.493 2.38 C 14.282 2.38 14.123 2.486 14.018 2.592 L 13.911 2.698 L 12.906 2.698 L 12.906 1.481 L 13.911 1.481 L 14.018 1.587 C 14.123 1.746 14.335 1.798 14.493 1.798 C 14.811 1.798 15.128 1.534 15.128 1.217 C 15.128 .899 14.863 .635 14.493 .635 C 14.282 .635 14.123 .741 14.018 .846 L 13.911 .952 L 13.065 .952 L 13.013 .899 C 11.69 -.265 10.262 -.793 8.41 -.793 C 6.982 -.793 6.136 -.582 5.237 0 C 3.65 1.111 1.641 1.111 0 0 " fill="#ffffff"/>
<path transform="matrix(1,0,0,-1,87.0146,80.0059)" d="M 0 0 C 1.692 -.899 3.121 -1.164 5.606 .159 C 8.357 1.586 11.213 .635 12.853 -.952 L 12.853 -1.798 C 10.843 .793 7.617 .687 5.342 -.582 C 3.491 -1.64 1.428 -1.534 -.688 -.265 L -.688 10.896 L -.106 11.161 L -.106 0 Z " fill="#ffffff"/>
<path transform="matrix(1,0,0,-1,87.3848,79.6357)" d="M 0 0 L 0 11.108 L .053 11.161 C 1.957 10.737 3.438 10.843 5.342 11.689 C 7.669 12.694 10.05 12.377 12.43 10.737 L 12.43 -.582 C 11.267 .37 9.732 1.005 8.04 1.005 C 7.035 1.005 5.977 .793 4.972 .265 C 2.75 -.899 1.534 -.741 0 0 " fill="#ffffff"/>
<path transform="matrix(1,0,0,-1,107.5898,79.8472)" d="M 0 0 C 2.486 -1.323 3.915 -1.058 5.607 -.159 L 5.766 -.106 L 5.766 11.055 L 6.348 10.79 L 6.348 -.371 C 4.073 -1.481 2.063 -1.587 .317 -.688 C -1.957 .476 -5.184 .74 -7.193 -1.904 L -7.193 -1.058 C -5.606 .476 -2.75 1.428 0 0 " fill="#ffffff"/>
<path transform="matrix(1,0,0,-1,100.3438,80.2178)" d="M 0 0 L 0 11.319 C 2.327 12.959 4.708 13.224 7.088 12.271 C 9.045 11.478 10.473 11.319 12.377 11.743 L 12.431 11.69 L 12.431 .582 C 10.896 -.211 9.68 -.37 7.458 .793 C 4.708 2.274 1.799 1.481 0 0 " fill="#ffffff"/>
<path transform="matrix(1,0,0,-1,112.9326,66.4653)" d="M 0 0 L -3.015 2.274 L -6.03 0 L -4.866 3.597 L -8.04 5.872 L -4.179 5.872 L -3.015 9.521 L -1.852 5.872 L 2.01 5.872 L -1.164 3.597 Z " fill="#ffffff"/>
<path transform="matrix(1,0,0,-1,93.2559,66.5181)" d="M 0 0 L -3.015 2.274 L -6.03 0 L -4.866 3.65 L -7.987 5.924 L -4.179 5.924 L -3.015 9.521 L -1.851 5.924 L 2.01 5.924 L -1.164 3.65 Z " fill="#ffffff"/>
<path transform="matrix(1,0,0,-1,97.1172,94.8691)" d="M 0 0 L 1.111 3.597 L -2.01 5.871 L 1.798 5.871 L 2.962 9.521 L 4.126 5.871 L 7.987 5.871 L 4.813 3.597 L 5.978 0 L 2.962 2.221 Z " fill="#ffffff"/>
</g>
</g>
</g>
</svg>
